<?xml version="1.0" encoding="utf-8"?>
<!-- Generator: Adobe Illustrator 24.3.0, SVG Export Plug-In . SVG Version: 6.00 Build 0)  -->
<svg version="1.1" id="Layer_1" xmlns="http://www.w3.org/2000/svg" xmlns:xlink="http://www.w3.org/1999/xlink" x="0px" y="0px"
	 viewBox="0 0 210 100" style="enable-background:new 0 0 210 100;" xml:space="preserve">
<style type="text/css">
	.st0{fill:#FDB913;}
	.st1{fill:#FFC20E;}
	.st2{fill:#ED1C24;}
	.st3{fill:#231F20;}
	.st4{fill:#666666;}
	.st5{fill:#333333;}
	.st6{fill:none;stroke:#4D4D4D;stroke-width:0.25;}
	.st7{fill:#808080;}
</style>
<path class="st0" d="M190.1,42.5c-0.3-2.6-0.8-5.1-1.6-7.6c-0.8-2.9-1.8-5.7-3.3-8.3c-1.3-2.3-2.9-4.5-5.1-6.1
	c-2.1-1.6-4.5-2.6-7.1-3.3c-3-0.8-6.3-1.1-9.4-1.1c-3.2,0-6.4,0.5-9.6,0.5c-3.9,0-7.9-0.4-11.8-0.6c-11.9-0.7-23.9-1.4-35.8-1.3
	c-6.1,0-12.3,0.3-18.4,0.1c-3.1-0.1-6.2-0.2-9.4-0.2c-3.3,0-6.5,0.3-9.7,0.3C62.3,15,56,13.8,49.6,14.6C43.3,15.4,37.1,17,31,18.4
	c-1.4,0.3-2.8,0.6-4.3,0.9c-1.3,0.2-2.4,1.5-3.3,2.5c-1.5,1.6-2.6,3.7-3.4,5.7c-1.8,4.4-2.5,9.2-2.8,14c-0.2,3-0.1,6-0.1,9
	c-0.1,2.9,0,5.9,0.2,8.8c0.4,4.6,1.1,9.3,3,13.6c1,2.2,2.2,4.2,3.9,6c0.5,0.5,0.9,0.9,1.4,1.3c0.6,0.5,1.2,0.5,1.9,0.7
	c1.5,0.3,3.1,0.6,4.6,1c6.2,1.5,12.4,3.1,18.7,3.8c3.1,0.4,6.3,0.4,9.5,0s6.5-0.5,9.8-0.4c3.3,0.1,6.5,0.3,9.8,0.2
	c3.1,0,6.2-0.2,9.3-0.3c11.4-0.3,22.8,0.6,34.1-0.1c4.3-0.3,8.7-0.5,13-0.8c2.2-0.1,4.4-0.2,6.6-0.4c4.2-0.2,8.5-0.7,12.7-0.6
	c3.2,0.1,6.4,0.5,9.6,0.4c3-0.1,6.2-0.5,9.1-1.4c2.4-0.8,4.6-1.9,6.5-3.5c2.1-1.8,3.6-4.1,4.9-6.6c2.3-4.5,3.7-9.7,4.3-14.7
	c0.3-2.5,0.3-5.1,0.5-7.6c0.1-1.1-0.2-2.2-0.2-3.3C190.2,45.3,190.1,43.9,190.1,42.5"/>
<g>
	<path class="st1" d="M190.1,42.6c-0.3-2.7-1-6.1-2.4-10.1c-0.7-2.3-1.7-4.5-2.8-6.3c-0.8-1.3-1.6-2.5-2.5-3.5
		c-2.3-2.5-5.5-4.4-9.7-5.4c-1.7-0.3-3.5-0.7-5.2-0.8c5,1.6,10,4.4,15.1,8.6c1.1,1.5,1.8,3.3,2,5.4v2.1c0.3,1.5,1.2,2.6,2.8,3.1
		c1.1,0.5,1.7,5.2,1.7,14.1c0,9-0.6,13.8-1.7,14.4c-1.6,0.5-2.5,1.6-2.8,3.2v2.1c-0.2,2.1-0.9,3.9-2,5.4c-5.1,4.3-10.1,7.2-15.1,8.8
		c1.7-0.2,3.5-0.5,5.2-0.8c4.2-1.1,7.4-2.9,9.7-5.5c0.9-1,1.7-2.2,2.5-3.5c1.1-2,2.1-4.1,2.8-6.5c1.4-4,2.1-7.5,2.4-10.2
		c0.1-2.8,0.3-5.3,0.5-7.4C190.4,47.7,190.2,45.4,190.1,42.6z"/>
	<path class="st1" d="M138.6,18.8c-0.8-0.1-1.6-0.1-2.4-0.2c-2.8,0.4-5.8,0.9-8.6,1.4c-4.9,0.9-9.6,2-14.4,3.3
		C88.6,23.9,70,23,57.5,20.6c0.5-0.8,1.5-1.4,3.2-1.7C52,18.6,43.8,19.3,36,21c24.8,3.8,50.4,5.1,76.9,3.7
		c17.3-3.9,31.4-5.5,42.3-4.6C150.2,19.6,144.7,19.2,138.6,18.8z"/>
	<path class="st1" d="M113.2,76.7c4.8,1.4,9.5,2.5,14.4,3.4c2.8,0.5,5.8,1,8.6,1.3c0.8,0,1.6,0,2.4,0c6.1-0.4,11.6-0.8,16.6-1.4
		c-10.9,0.9-25-0.7-42.3-4.6c-26.5-1.5-52.1-0.2-76.9,3.8c7.8,1.6,16,2.3,24.7,2c-1.7-0.3-2.7-0.8-3.2-1.8
		C70,77.1,88.6,76.2,113.2,76.7z"/>
	<path class="st1" d="M163,80.6c-8,0.6-16.1,1.1-24.2,1.6c-1.9,0.2-3.9,0.2-5.9,0.3l-3.5,0.1c-13.5,0.6-27.2,0.8-40.9,0.6
		c-8.5,0-17-0.3-25.5-0.6c-8.4-0.2-16.5-0.9-24-2c-7.6-1.2-13.4-2.8-17.5-5c0.4,0.7,0.9,1.4,1.4,2c1,1.2,2,2.2,3.1,3
		c1.7,0.4,3.6,0.8,5.3,1.1c2,0.5,4,0.9,6.1,1.5c3.9,1,7.9,1.7,11.8,2.3c3.7,0.6,7.3,0.7,11,0.2c4.2-0.5,8.4-0.5,12.5-0.3
		c4,0.2,8.1,0.2,12.2,0c0.2,0,0.5,0,0.8,0c3.8-0.2,7.7-0.2,11.7-0.2c3.7,0.2,7.7,0.2,12,0.2c4.2,0,8.5-0.1,12.9-0.2l4.4-0.3l6.2-0.4
		l1-0.1l0,0h0.9h0.1l6.6-0.3l5.2-0.3c4.3-0.5,8.4-0.5,12.7-0.1c2.7,0.3,5.4,0.2,8.1,0C165.3,83.7,163.8,82.7,163,80.6z"/>
	<path class="st1" d="M159.4,16.5c-4.3,0.4-8.4,0.3-12.7-0.1l-5.2-0.3l-6.9-0.4h-0.1h-0.6l0,0l-3.5-0.2l0,0l-2-0.1l-6.1-0.3
		c-4.4-0.2-8.7-0.3-12.9-0.3c-4.3,0-8.3,0-12,0.2c-4,0-7.9,0-11.7-0.2c-0.3,0-0.6,0-0.8,0c-4.1-0.2-8.2-0.2-12.2,0
		c-4.1,0.3-8.3,0.2-12.5-0.2c-3.7-0.5-7.3-0.4-11,0.1c-3.9,0.5-7.9,1.4-11.8,2.3c-2.1,0.5-4.1,1-6.1,1.4c-1.7,0.4-3.6,0.8-5.3,1.1
		c-1.1,0.8-2.1,1.7-3.1,2.9c-0.5,0.7-1,1.3-1.4,2.1c4.1-2.2,9.9-3.9,17.5-5c7.5-1.2,15.6-1.8,24-1.9c8.5-0.4,17-0.6,25.5-0.7
		c13.7-0.2,27.3,0.1,40.8,0.6l5.3,0.2c1.4,0.1,2.8,0.2,4.2,0.3c8.1,0.3,16.2,0.9,24.2,1.6c0.8-2.1,2.3-3.1,4.5-3.1
		C164.8,16.2,162.1,16.2,159.4,16.5z"/>
</g>
<path class="st2" d="M31.4,18.4c-1.7,0.4-3.6,0.8-5.3,1.1C25,20.3,24,21.2,23,22.4C27.6,20.9,30.3,19.6,31.4,18.4z"/>
<path class="st2" d="M26.1,80.6c1.7,0.4,3.6,0.8,5.3,1.1c-1.1-1.1-3.8-2.5-8.4-4.1C24,78.8,25,79.8,26.1,80.6z"/>
<path class="st3" d="M60.7,18.9c-1.7,0.3-2.7,0.9-3.2,1.7c12.5,2.4,31.1,3.3,55.7,2.7c4.8-1.3,9.5-2.4,14.4-3.3
	c0.8-0.5,1.3-1,1.5-1.5c-13.4-0.4-26.9-0.5-40.4-0.3c-8.1,0-16.2,0.2-24.3,0.4C62.9,18.6,61.7,18.7,60.7,18.9z"/>
<path class="st3" d="M60.7,81.2c1,0.2,2.2,0.3,3.7,0.2c8.1,0.3,16.2,0.5,24.3,0.6c13.5,0.2,27,0,40.4-0.4c-0.2-0.4-0.7-1-1.5-1.5
	c-4.9-0.9-9.6-2-14.4-3.4c-24.6-0.5-43.2,0.4-55.7,2.7C58,80.4,59,80.9,60.7,81.2z"/>
<path class="st3" d="M116.7,25.5c0.1,0.3,0.2,0.6,0.3,1c2.2,8.1,3.1,15.9,2.5,23.3c0.6,7.5-0.3,15.4-2.5,23.8
	c-0.1,0.3-0.2,0.6-0.3,1c14.9,4.1,23.3,5.4,25.2,3.8c4.7-6.2,7.1-15.7,7.1-28.6c0-12.6-2.4-22.1-7.1-28.2
	C140,20.1,131.6,21.4,116.7,25.5z"/>
<path class="st3" d="M62.7,26.3c0.1-0.3,0.3-0.7,0.5-1.1l-19.4-2.1c-2.1-0.6-4-0.1-5.5,1.3v0.1C35,27.7,33,36.2,32.7,49.8
	C33,63.6,35,72.2,38.3,75.6l0,0c1.5,1.6,3.4,2,5.5,1.4l19.4-2.1c-0.2-0.5-0.4-0.8-0.5-1.2c-3.3-7.1-4.6-15.1-3.9-23.9
	C58.1,41.2,59.4,33.3,62.7,26.3z"/>
<g>
	<path d="M132.5,17.1c0-0.1,0-0.1-0.1-0.1c-0.8,0.1-1.7,0.1-2.5,0.2c-0.2,0-0.4,0-0.5-0.1c0,0.1,0,0.2,0,0.4c0,0.3-0.1,0.7-0.3,1
		c-0.2,0.5-0.7,1-1.5,1.5c2.8-0.5,5.8-1,8.6-1.4c-0.1,0-0.1,0-0.2,0h-0.1c-1.4,0-2.4-0.4-3-1C132.7,17.5,132.6,17.2,132.5,17.1z"/>
	<path class="st4" d="M133.9,15.7c0-0.2,0-0.4-0.1-0.6c-0.2-1.1-0.7-2.2-1.4-3.1c-1.3-2.2-3-3.3-5-3.4c-0.6,0-0.8,0.4-0.7,1l1.7,5.8
		l0.3,0.8c0.1,0.5,0.3,0.8,0.7,0.9c0.1,0.1,0.3,0.1,0.5,0.1c0.8-0.1,1.7-0.1,2.5-0.2c0.2,0,0.3,0,0.3,0S134,16.7,133.9,15.7z"/>
	<path class="st5" d="M127.4,8.6c-0.6,0-0.8,0.4-0.7,1l1.7,5.8l0.3,0.8c0.1,0.5,0.3,0.8,0.7,0.9c0.1,0.1,0.3,0.1,0.5,0.1
		c-0.1-0.6-0.2-1.2-0.3-1.7C129,13.1,128.3,10.7,127.4,8.6z"/>
</g>
<g>
	<path d="M132.8,82.4c0.6-0.6,1.6-1,3-1h0.1c0.1,0,0.1,0,0.2,0c-2.8-0.4-5.8-0.9-8.6-1.4c0.8,0.5,1.3,1,1.5,1.5
		c0.2,0.3,0.3,0.7,0.3,1c0,0.2,0,0.3,0,0.4c0.1-0.1,0.3-0.1,0.5-0.1c0.8,0.1,1.7,0.1,2.5,0.2c0.1,0,0.1,0,0.1-0.1
		C132.5,82.8,132.6,82.5,132.8,82.4z"/>
	<path class="st4" d="M133.8,84.3c0,0.2,0,0.4-0.1,0.6c-0.2,1.1-0.7,2.2-1.4,3.1c-1.3,2.2-3,3.3-5,3.4c-0.6,0-0.8-0.4-0.7-1l1.7-5.8
		l0.3-0.8c0.1-0.5,0.3-0.8,0.7-0.9c0.1-0.1,0.3-0.1,0.5-0.1c0.8,0.1,1.7,0.1,2.5,0.2c0.2,0,0.3,0,0.3,0S134,83.3,133.8,84.3z"/>
	<path class="st5" d="M129.5,84.5c0.1-0.5,0.2-1.1,0.3-1.7c-0.2,0-0.4,0-0.5,0.1c-0.4,0.1-0.6,0.4-0.7,0.9l-0.3,0.8l-1.7,5.8
		c-0.1,0.6,0.1,1,0.7,1C128.2,89.3,128.9,86.9,129.5,84.5z"/>
</g>
<path class="st6" d="M141.5,84.1c-1.4-0.5-2.3-1.2-2.7-1.9c-0.1-0.3-0.2-0.6-0.2-0.8c6.1-0.4,11.6-0.8,16.6-1.4
	c13-1.3,22.1-3,27.4-5.1l0,0c0.9-0.3,1.6-0.7,2.3-1"/>
<path class="st6" d="M38.3,24.4c-0.9-1.4-6.5-1.3-16.8,0.1"/>
<path class="st6" d="M21.5,75.6c10.3,1.5,15.9,1.5,16.8,0"/>
<path class="st6" d="M184.9,26.2c-0.7-0.4-1.4-0.7-2.3-1.1l0,0c-5.3-2-14.4-3.7-27.4-5c-5-0.5-10.5-0.9-16.6-1.3
	c0-0.3,0.1-0.6,0.2-0.8c0.4-0.8,1.3-1.4,2.7-1.9"/>
<path class="st7" d="M63.7,46.3c-0.5,0.9-0.7,1.9-0.5,3.1c-0.2,1.3,0,2.3,0.5,3.1c4.8-0.4,7.2-1.5,7.5-3.1
	C70.9,47.8,68.5,46.8,63.7,46.3z"/>
<path class="st3" d="M113.1,49.4l-0.3-15.9c-0.1-1.9-1.1-3.1-3.4-3.4H96.5c-3.3-0.3-4.8,1.1-4.6,4.2v30.5c-0.2,3.1,1.3,4.5,4.6,4.3
	h12.9c2.3-0.4,3.3-1.6,3.4-3.4L113.1,49.4z"/>
</svg>
